<svg xmlns="http://www.w3.org/2000/svg" xmlns:xlink="http://www.w3.org/1999/xlink" width="500" zoomAndPan="magnify" viewBox="0 0 375 374.999991" height="500" preserveAspectRatio="xMidYMid meet" version="1.0"><defs><g/><clipPath id="f5fc740bf6"><path d="M 33 174 L 63 174 L 63 206 L 33 206 Z M 33 174 " clip-rule="nonzero"/></clipPath><clipPath id="3240aaa818"><path d="M 22.355469 175.640625 L 53.363281 164.339844 L 66.203125 199.570312 L 35.199219 210.871094 Z M 22.355469 175.640625 " clip-rule="nonzero"/></clipPath><clipPath id="9b201c2e40"><path d="M 22.355469 175.640625 L 53.363281 164.339844 L 66.203125 199.570312 L 35.199219 210.871094 Z M 22.355469 175.640625 " clip-rule="nonzero"/></clipPath><clipPath id="a945fd81a3"><path d="M 25 170 L 55 170 L 55 201 L 25 201 Z M 25 170 " clip-rule="nonzero"/></clipPath><clipPath id="2f24cb2025"><path d="M 22.355469 175.640625 L 53.363281 164.339844 L 66.203125 199.570312 L 35.199219 210.871094 Z M 22.355469 175.640625 " clip-rule="nonzero"/></clipPath><clipPath id="c55efe029c"><path d="M 22.355469 175.640625 L 53.363281 164.339844 L 66.203125 199.570312 L 35.199219 210.871094 Z M 22.355469 175.640625 " clip-rule="nonzero"/></clipPath></defs><g clip-path="url(#f5fc740bf6)"><g clip-path="url(#3240aaa818)"><g clip-path="url(#9b201c2e40)"><path fill="#cca23f" d="M 33.019531 202.15625 C 40.898438 192.898438 48.746094 183.671875 56.65625 174.375 C 58.117188 177.789062 59.417969 181.144531 58.195312 184.871094 C 61.011719 185.40625 61.753906 187.628906 62.273438 190.011719 C 62.441406 190.765625 62.125 191.5 61.617188 192.109375 C 58.300781 196.070312 54.984375 200.035156 51.65625 203.988281 C 50.960938 204.816406 50.027344 205.195312 48.960938 205.015625 C 43.703125 204.113281 38.449219 203.175781 33.191406 202.253906 C 33.15625 202.246094 33.121094 202.214844 33.019531 202.15625 Z M 55.449219 181.34375 C 50.1875 187.523438 45.03125 193.585938 39.785156 199.75 C 40.507812 199.882812 41.121094 199.964844 41.71875 200.113281 C 42.140625 200.214844 42.414062 200.113281 42.683594 199.78125 C 43.449219 198.839844 44.246094 197.921875 45.03125 196.996094 C 48.664062 192.726562 52.300781 188.460938 55.921875 184.179688 C 56.085938 183.988281 56.242188 183.652344 56.1875 183.4375 C 56.015625 182.773438 55.738281 182.136719 55.449219 181.34375 Z M 57.734375 187.621094 C 53.925781 192.09375 50.210938 196.460938 46.410156 200.925781 C 47.332031 201.089844 48.148438 201.242188 48.964844 201.359375 C 49.085938 201.375 49.265625 201.234375 49.363281 201.121094 C 52.378906 197.539062 55.382812 193.949219 58.382812 190.355469 C 58.488281 190.230469 58.578125 190.003906 58.535156 189.867188 C 58.3125 189.15625 58.042969 188.464844 57.734375 187.621094 Z M 57.734375 187.621094 " fill-opacity="1" fill-rule="nonzero"/></g></g></g><g clip-path="url(#a945fd81a3)"><g clip-path="url(#2f24cb2025)"><g clip-path="url(#c55efe029c)"><path fill="#1a1449" d="M 41.601562 170.503906 C 41.1875 171 40.859375 171.398438 40.523438 171.792969 C 37.011719 175.976562 33.503906 180.167969 29.972656 184.335938 C 29.5625 184.820312 29.507812 185.21875 29.726562 185.800781 C 30.59375 188.070312 31.40625 190.363281 32.238281 192.648438 C 32.328125 192.898438 32.417969 193.144531 32.585938 193.601562 C 37.84375 187.417969 42.984375 181.382812 48.230469 175.21875 C 47.3125 175.0625 46.558594 174.894531 45.800781 174.828125 C 45.605469 174.8125 45.351562 175.09375 45.183594 175.289062 C 41.488281 179.621094 37.800781 183.957031 34.109375 188.296875 C 33.910156 188.527344 33.707031 188.757812 33.425781 189.085938 C 32.960938 187.816406 32.53125 186.671875 32.140625 185.507812 C 32.09375 185.367188 32.242188 185.113281 32.363281 184.96875 C 36.222656 180.417969 40.085938 175.875 43.964844 171.34375 C 44.117188 171.164062 44.472656 171.023438 44.699219 171.0625 C 47.980469 171.613281 51.257812 172.199219 54.535156 172.777344 C 54.59375 172.789062 54.652344 172.820312 54.808594 172.878906 C 47.011719 182.042969 39.242188 191.171875 31.386719 200.402344 C 31.269531 200.074219 31.199219 199.886719 31.128906 199.695312 C 29.464844 195.128906 27.804688 190.558594 26.132812 185.996094 C 25.703125 184.820312 25.890625 183.78125 26.6875 182.832031 C 29.886719 179.015625 33.097656 175.207031 36.285156 171.375 C 37.191406 170.285156 38.277344 169.855469 39.664062 170.160156 C 40.257812 170.285156 40.855469 170.371094 41.601562 170.503906 Z M 41.601562 170.503906 " fill-opacity="1" fill-rule="nonzero"/></g></g></g><g fill="#1e1e1e" fill-opacity="1"><g transform="translate(75.073471, 197.514624)"><g><path d="M 12.34375 -16.90625 C 10.195312 -16.90625 8.644531 -16.3125 7.6875 -15.125 C 6.726562 -13.9375 6.25 -12.304688 6.25 -10.234375 C 6.25 -9.234375 6.367188 -8.320312 6.609375 -7.5 C 6.847656 -6.6875 7.203125 -5.984375 7.671875 -5.390625 C 8.140625 -4.804688 8.726562 -4.351562 9.4375 -4.03125 C 10.144531 -3.707031 10.972656 -3.546875 11.921875 -3.546875 C 12.429688 -3.546875 12.867188 -3.550781 13.234375 -3.5625 C 13.597656 -3.582031 13.921875 -3.625 14.203125 -3.6875 L 14.203125 -10.796875 L 18.796875 -10.796875 L 18.796875 -0.671875 C 18.242188 -0.460938 17.359375 -0.234375 16.140625 0.015625 C 14.921875 0.265625 13.414062 0.390625 11.625 0.390625 C 10.09375 0.390625 8.703125 0.15625 7.453125 -0.3125 C 6.203125 -0.789062 5.132812 -1.484375 4.25 -2.390625 C 3.363281 -3.296875 2.675781 -4.40625 2.1875 -5.71875 C 1.707031 -7.039062 1.46875 -8.546875 1.46875 -10.234375 C 1.46875 -11.953125 1.734375 -13.46875 2.265625 -14.78125 C 2.796875 -16.101562 3.523438 -17.222656 4.453125 -18.140625 C 5.378906 -19.054688 6.46875 -19.75 7.71875 -20.21875 C 8.96875 -20.6875 10.300781 -20.921875 11.71875 -20.921875 C 12.675781 -20.921875 13.546875 -20.859375 14.328125 -20.734375 C 15.109375 -20.609375 15.773438 -20.460938 16.328125 -20.296875 C 16.890625 -20.128906 17.351562 -19.957031 17.71875 -19.78125 C 18.082031 -19.601562 18.34375 -19.460938 18.5 -19.359375 L 17.171875 -15.671875 C 16.546875 -16.003906 15.820312 -16.289062 15 -16.53125 C 14.1875 -16.78125 13.300781 -16.90625 12.34375 -16.90625 Z M 12.34375 -16.90625 "/></g></g></g><g fill="#1e1e1e" fill-opacity="1"><g transform="translate(95.794376, 197.514624)"><g><path d="M 8 -3.0625 C 8.425781 -3.0625 8.835938 -3.070312 9.234375 -3.09375 C 9.628906 -3.113281 9.945312 -3.144531 10.1875 -3.1875 L 10.1875 -6.515625 C 10.007812 -6.554688 9.742188 -6.597656 9.390625 -6.640625 C 9.035156 -6.679688 8.707031 -6.703125 8.40625 -6.703125 C 8 -6.703125 7.613281 -6.675781 7.25 -6.625 C 6.882812 -6.570312 6.5625 -6.476562 6.28125 -6.34375 C 6.007812 -6.207031 5.796875 -6.019531 5.640625 -5.78125 C 5.484375 -5.550781 5.40625 -5.257812 5.40625 -4.90625 C 5.40625 -4.207031 5.632812 -3.722656 6.09375 -3.453125 C 6.550781 -3.191406 7.1875 -3.0625 8 -3.0625 Z M 7.640625 -15.9375 C 8.941406 -15.9375 10.023438 -15.785156 10.890625 -15.484375 C 11.753906 -15.191406 12.445312 -14.769531 12.96875 -14.21875 C 13.488281 -13.675781 13.859375 -13.007812 14.078125 -12.21875 C 14.296875 -11.425781 14.40625 -10.550781 14.40625 -9.59375 L 14.40625 -0.4375 C 13.769531 -0.300781 12.890625 -0.140625 11.765625 0.046875 C 10.648438 0.234375 9.296875 0.328125 7.703125 0.328125 C 6.703125 0.328125 5.789062 0.238281 4.96875 0.0625 C 4.15625 -0.113281 3.453125 -0.40625 2.859375 -0.8125 C 2.273438 -1.21875 1.820312 -1.742188 1.5 -2.390625 C 1.1875 -3.035156 1.03125 -3.832031 1.03125 -4.78125 C 1.03125 -5.6875 1.210938 -6.453125 1.578125 -7.078125 C 1.941406 -7.710938 2.425781 -8.21875 3.03125 -8.59375 C 3.644531 -8.96875 4.34375 -9.238281 5.125 -9.40625 C 5.914062 -9.570312 6.734375 -9.65625 7.578125 -9.65625 C 8.148438 -9.65625 8.65625 -9.628906 9.09375 -9.578125 C 9.539062 -9.523438 9.90625 -9.460938 10.1875 -9.390625 L 10.1875 -9.796875 C 10.1875 -10.546875 9.957031 -11.144531 9.5 -11.59375 C 9.050781 -12.050781 8.265625 -12.28125 7.140625 -12.28125 C 6.390625 -12.28125 5.648438 -12.222656 4.921875 -12.109375 C 4.203125 -12.003906 3.578125 -11.851562 3.046875 -11.65625 L 2.484375 -15.203125 C 2.734375 -15.273438 3.050781 -15.351562 3.4375 -15.4375 C 3.820312 -15.53125 4.238281 -15.613281 4.6875 -15.6875 C 5.144531 -15.757812 5.625 -15.816406 6.125 -15.859375 C 6.625 -15.910156 7.128906 -15.9375 7.640625 -15.9375 Z M 7.640625 -15.9375 "/></g></g></g><g fill="#1e1e1e" fill-opacity="1"><g transform="translate(112.117259, 197.514624)"><g><path d="M 8.265625 0.296875 C 6.984375 0.273438 5.941406 0.140625 5.140625 -0.109375 C 4.347656 -0.367188 3.71875 -0.726562 3.25 -1.1875 C 2.789062 -1.65625 2.476562 -2.21875 2.3125 -2.875 C 2.144531 -3.53125 2.0625 -4.273438 2.0625 -5.109375 L 2.0625 -22.203125 L 6.46875 -22.90625 L 6.46875 -5.984375 C 6.46875 -5.597656 6.492188 -5.242188 6.546875 -4.921875 C 6.609375 -4.609375 6.722656 -4.34375 6.890625 -4.125 C 7.054688 -3.914062 7.296875 -3.738281 7.609375 -3.59375 C 7.929688 -3.457031 8.359375 -3.367188 8.890625 -3.328125 Z M 8.265625 0.296875 "/></g></g></g><g fill="#1e1e1e" fill-opacity="1"><g transform="translate(121.444618, 197.514624)"><g><path d="M 1.328125 -7.640625 C 1.328125 -9.015625 1.535156 -10.21875 1.953125 -11.25 C 2.378906 -12.289062 2.9375 -13.15625 3.625 -13.84375 C 4.3125 -14.53125 5.101562 -15.050781 6 -15.40625 C 6.894531 -15.757812 7.816406 -15.9375 8.765625 -15.9375 C 10.972656 -15.9375 12.710938 -15.257812 13.984375 -13.90625 C 15.265625 -12.5625 15.90625 -10.582031 15.90625 -7.96875 C 15.90625 -7.707031 15.894531 -7.425781 15.875 -7.125 C 15.851562 -6.820312 15.835938 -6.550781 15.828125 -6.3125 L 5.84375 -6.3125 C 5.9375 -5.40625 6.359375 -4.6875 7.109375 -4.15625 C 7.859375 -3.625 8.863281 -3.359375 10.125 -3.359375 C 10.925781 -3.359375 11.71875 -3.429688 12.5 -3.578125 C 13.28125 -3.734375 13.914062 -3.914062 14.40625 -4.125 L 15 -0.5625 C 14.757812 -0.445312 14.441406 -0.328125 14.046875 -0.203125 C 13.648438 -0.0859375 13.210938 0.0078125 12.734375 0.09375 C 12.253906 0.1875 11.738281 0.257812 11.1875 0.3125 C 10.632812 0.375 10.082031 0.40625 9.53125 0.40625 C 8.132812 0.40625 6.921875 0.203125 5.890625 -0.203125 C 4.859375 -0.617188 4 -1.1875 3.3125 -1.90625 C 2.632812 -2.625 2.132812 -3.472656 1.8125 -4.453125 C 1.488281 -5.441406 1.328125 -6.503906 1.328125 -7.640625 Z M 11.65625 -9.328125 C 11.632812 -9.703125 11.566406 -10.066406 11.453125 -10.421875 C 11.347656 -10.773438 11.179688 -11.085938 10.953125 -11.359375 C 10.734375 -11.640625 10.453125 -11.867188 10.109375 -12.046875 C 9.765625 -12.222656 9.335938 -12.3125 8.828125 -12.3125 C 8.335938 -12.3125 7.914062 -12.226562 7.5625 -12.0625 C 7.207031 -11.894531 6.910156 -11.671875 6.671875 -11.390625 C 6.429688 -11.117188 6.25 -10.800781 6.125 -10.4375 C 6 -10.070312 5.90625 -9.703125 5.84375 -9.328125 Z M 11.65625 -9.328125 "/></g></g></g><g fill="#1e1e1e" fill-opacity="1"><g transform="translate(138.682519, 197.514624)"><g><path d="M 11.421875 -11.625 C 11.023438 -11.726562 10.5625 -11.832031 10.03125 -11.9375 C 9.5 -12.039062 8.929688 -12.09375 8.328125 -12.09375 C 8.046875 -12.09375 7.710938 -12.066406 7.328125 -12.015625 C 6.953125 -11.972656 6.664062 -11.921875 6.46875 -11.859375 L 6.46875 0 L 2.0625 0 L 2.0625 -14.703125 C 2.851562 -14.972656 3.785156 -15.226562 4.859375 -15.46875 C 5.929688 -15.71875 7.125 -15.84375 8.4375 -15.84375 C 8.675781 -15.84375 8.960938 -15.828125 9.296875 -15.796875 C 9.628906 -15.773438 9.960938 -15.738281 10.296875 -15.6875 C 10.628906 -15.632812 10.960938 -15.570312 11.296875 -15.5 C 11.640625 -15.4375 11.925781 -15.359375 12.15625 -15.265625 Z M 11.421875 -11.625 "/></g></g></g><g fill="#1e1e1e" fill-opacity="1"><g transform="translate(151.138682, 197.514624)"><g><path d="M 6.46875 0 L 2.0625 0 L 2.0625 -15.53125 L 6.46875 -15.53125 Z M 6.875 -20.015625 C 6.875 -19.203125 6.613281 -18.566406 6.09375 -18.109375 C 5.570312 -17.648438 4.957031 -17.421875 4.25 -17.421875 C 3.539062 -17.421875 2.925781 -17.648438 2.40625 -18.109375 C 1.882812 -18.566406 1.625 -19.203125 1.625 -20.015625 C 1.625 -20.816406 1.882812 -21.445312 2.40625 -21.90625 C 2.925781 -22.375 3.539062 -22.609375 4.25 -22.609375 C 4.957031 -22.609375 5.570312 -22.375 6.09375 -21.90625 C 6.613281 -21.445312 6.875 -20.816406 6.875 -20.015625 Z M 6.875 -20.015625 "/></g></g></g><g fill="#1e1e1e" fill-opacity="1"><g transform="translate(159.66909, 197.514624)"><g><path d="M 9.171875 0.265625 C 8.054688 0.265625 6.941406 0.226562 5.828125 0.15625 C 4.710938 0.09375 3.554688 -0.0664062 2.359375 -0.328125 L 2.359375 -20.15625 C 3.304688 -20.332031 4.335938 -20.460938 5.453125 -20.546875 C 6.578125 -20.640625 7.625 -20.6875 8.59375 -20.6875 C 9.882812 -20.6875 11.078125 -20.59375 12.171875 -20.40625 C 13.265625 -20.21875 14.203125 -19.894531 14.984375 -19.4375 C 15.773438 -18.988281 16.390625 -18.394531 16.828125 -17.65625 C 17.273438 -16.925781 17.5 -16.019531 17.5 -14.9375 C 17.5 -13.300781 16.710938 -12.007812 15.140625 -11.0625 C 16.441406 -10.570312 17.328125 -9.90625 17.796875 -9.0625 C 18.265625 -8.21875 18.5 -7.265625 18.5 -6.203125 C 18.5 -4.054688 17.71875 -2.441406 16.15625 -1.359375 C 14.59375 -0.273438 12.265625 0.265625 9.171875 0.265625 Z M 6.84375 -8.90625 L 6.84375 -3.625 C 7.175781 -3.59375 7.539062 -3.566406 7.9375 -3.546875 C 8.332031 -3.523438 8.765625 -3.515625 9.234375 -3.515625 C 10.609375 -3.515625 11.71875 -3.707031 12.5625 -4.09375 C 13.414062 -4.488281 13.84375 -5.21875 13.84375 -6.28125 C 13.84375 -7.226562 13.488281 -7.898438 12.78125 -8.296875 C 12.070312 -8.703125 11.054688 -8.90625 9.734375 -8.90625 Z M 6.84375 -12.421875 L 9.09375 -12.421875 C 10.507812 -12.421875 11.519531 -12.601562 12.125 -12.96875 C 12.738281 -13.332031 13.046875 -13.921875 13.046875 -14.734375 C 13.046875 -15.554688 12.726562 -16.132812 12.09375 -16.46875 C 11.46875 -16.800781 10.546875 -16.96875 9.328125 -16.96875 C 8.929688 -16.96875 8.503906 -16.960938 8.046875 -16.953125 C 7.597656 -16.941406 7.195312 -16.921875 6.84375 -16.890625 Z M 6.84375 -12.421875 "/></g></g></g><g fill="#1e1e1e" fill-opacity="1"><g transform="translate(179.504494, 197.514624)"><g><path d="M 15.3125 -0.53125 C 14.570312 -0.3125 13.609375 -0.109375 12.421875 0.078125 C 11.242188 0.265625 10.003906 0.359375 8.703125 0.359375 C 7.390625 0.359375 6.296875 0.179688 5.421875 -0.171875 C 4.546875 -0.523438 3.847656 -1.019531 3.328125 -1.65625 C 2.816406 -2.300781 2.453125 -3.066406 2.234375 -3.953125 C 2.023438 -4.835938 1.921875 -5.8125 1.921875 -6.875 L 1.921875 -15.53125 L 6.3125 -15.53125 L 6.3125 -7.40625 C 6.3125 -5.988281 6.5 -4.960938 6.875 -4.328125 C 7.25 -3.703125 7.945312 -3.390625 8.96875 -3.390625 C 9.28125 -3.390625 9.613281 -3.40625 9.96875 -3.4375 C 10.320312 -3.46875 10.640625 -3.503906 10.921875 -3.546875 L 10.921875 -15.53125 L 15.3125 -15.53125 Z M 15.3125 -0.53125 "/></g></g></g><g fill="#1e1e1e" fill-opacity="1"><g transform="translate(196.889978, 197.514624)"><g><path d="M 5.8125 -7.875 C 5.8125 -6.519531 6.113281 -5.425781 6.71875 -4.59375 C 7.332031 -3.769531 8.238281 -3.359375 9.4375 -3.359375 C 9.832031 -3.359375 10.195312 -3.375 10.53125 -3.40625 C 10.863281 -3.4375 11.140625 -3.472656 11.359375 -3.515625 L 11.359375 -11.515625 C 11.085938 -11.691406 10.726562 -11.835938 10.28125 -11.953125 C 9.84375 -12.066406 9.394531 -12.125 8.9375 -12.125 C 6.851562 -12.125 5.8125 -10.707031 5.8125 -7.875 Z M 15.765625 -0.5 C 15.367188 -0.382812 14.914062 -0.269531 14.40625 -0.15625 C 13.894531 -0.0507812 13.359375 0.0351562 12.796875 0.109375 C 12.234375 0.191406 11.660156 0.257812 11.078125 0.3125 C 10.503906 0.363281 9.953125 0.390625 9.421875 0.390625 C 8.140625 0.390625 6.992188 0.203125 5.984375 -0.171875 C 4.984375 -0.546875 4.140625 -1.082031 3.453125 -1.78125 C 2.765625 -2.476562 2.238281 -3.320312 1.875 -4.3125 C 1.507812 -5.3125 1.328125 -6.429688 1.328125 -7.671875 C 1.328125 -8.929688 1.484375 -10.066406 1.796875 -11.078125 C 2.109375 -12.097656 2.5625 -12.960938 3.15625 -13.671875 C 3.75 -14.378906 4.472656 -14.914062 5.328125 -15.28125 C 6.179688 -15.65625 7.160156 -15.84375 8.265625 -15.84375 C 8.867188 -15.84375 9.410156 -15.785156 9.890625 -15.671875 C 10.378906 -15.554688 10.867188 -15.390625 11.359375 -15.171875 L 11.359375 -22.203125 L 15.765625 -22.90625 Z M 15.765625 -0.5 "/></g></g></g><g fill="#1e1e1e" fill-opacity="1"><g transform="translate(214.718214, 197.514624)"><g><path d="M 8 -3.0625 C 8.425781 -3.0625 8.835938 -3.070312 9.234375 -3.09375 C 9.628906 -3.113281 9.945312 -3.144531 10.1875 -3.1875 L 10.1875 -6.515625 C 10.007812 -6.554688 9.742188 -6.597656 9.390625 -6.640625 C 9.035156 -6.679688 8.707031 -6.703125 8.40625 -6.703125 C 8 -6.703125 7.613281 -6.675781 7.25 -6.625 C 6.882812 -6.570312 6.5625 -6.476562 6.28125 -6.34375 C 6.007812 -6.207031 5.796875 -6.019531 5.640625 -5.78125 C 5.484375 -5.550781 5.40625 -5.257812 5.40625 -4.90625 C 5.40625 -4.207031 5.632812 -3.722656 6.09375 -3.453125 C 6.550781 -3.191406 7.1875 -3.0625 8 -3.0625 Z M 7.640625 -15.9375 C 8.941406 -15.9375 10.023438 -15.785156 10.890625 -15.484375 C 11.753906 -15.191406 12.445312 -14.769531 12.96875 -14.21875 C 13.488281 -13.675781 13.859375 -13.007812 14.078125 -12.21875 C 14.296875 -11.425781 14.40625 -10.550781 14.40625 -9.59375 L 14.40625 -0.4375 C 13.769531 -0.300781 12.890625 -0.140625 11.765625 0.046875 C 10.648438 0.234375 9.296875 0.328125 7.703125 0.328125 C 6.703125 0.328125 5.789062 0.238281 4.96875 0.0625 C 4.15625 -0.113281 3.453125 -0.40625 2.859375 -0.8125 C 2.273438 -1.21875 1.820312 -1.742188 1.5 -2.390625 C 1.1875 -3.035156 1.03125 -3.832031 1.03125 -4.78125 C 1.03125 -5.6875 1.210938 -6.453125 1.578125 -7.078125 C 1.941406 -7.710938 2.425781 -8.21875 3.03125 -8.59375 C 3.644531 -8.96875 4.34375 -9.238281 5.125 -9.40625 C 5.914062 -9.570312 6.734375 -9.65625 7.578125 -9.65625 C 8.148438 -9.65625 8.65625 -9.628906 9.09375 -9.578125 C 9.539062 -9.523438 9.90625 -9.460938 10.1875 -9.390625 L 10.1875 -9.796875 C 10.1875 -10.546875 9.957031 -11.144531 9.5 -11.59375 C 9.050781 -12.050781 8.265625 -12.28125 7.140625 -12.28125 C 6.390625 -12.28125 5.648438 -12.222656 4.921875 -12.109375 C 4.203125 -12.003906 3.578125 -11.851562 3.046875 -11.65625 L 2.484375 -15.203125 C 2.734375 -15.273438 3.050781 -15.351562 3.4375 -15.4375 C 3.820312 -15.53125 4.238281 -15.613281 4.6875 -15.6875 C 5.144531 -15.757812 5.625 -15.816406 6.125 -15.859375 C 6.625 -15.910156 7.128906 -15.9375 7.640625 -15.9375 Z M 7.640625 -15.9375 "/></g></g></g><g fill="#1e1e1e" fill-opacity="1"><g transform="translate(231.041097, 197.514624)"><g><path d="M 15.84375 -15.53125 C 14.957031 -12.53125 14.03125 -9.722656 13.0625 -7.109375 C 12.101562 -4.492188 11.054688 -1.957031 9.921875 0.5 C 9.503906 1.382812 9.085938 2.132812 8.671875 2.75 C 8.265625 3.375 7.8125 3.890625 7.3125 4.296875 C 6.820312 4.703125 6.265625 4.992188 5.640625 5.171875 C 5.023438 5.359375 4.304688 5.453125 3.484375 5.453125 C 2.796875 5.453125 2.160156 5.390625 1.578125 5.265625 C 0.992188 5.140625 0.515625 5 0.140625 4.84375 L 0.921875 1.328125 C 1.367188 1.484375 1.769531 1.585938 2.125 1.640625 C 2.476562 1.703125 2.851562 1.734375 3.25 1.734375 C 4.03125 1.734375 4.632812 1.519531 5.0625 1.09375 C 5.488281 0.675781 5.847656 0.09375 6.140625 -0.65625 C 5.140625 -2.613281 4.132812 -4.816406 3.125 -7.265625 C 2.125 -9.722656 1.179688 -12.476562 0.296875 -15.53125 L 4.953125 -15.53125 C 5.148438 -14.757812 5.378906 -13.925781 5.640625 -13.03125 C 5.910156 -12.132812 6.191406 -11.226562 6.484375 -10.3125 C 6.785156 -9.394531 7.085938 -8.503906 7.390625 -7.640625 C 7.691406 -6.773438 7.984375 -5.988281 8.265625 -5.28125 C 8.515625 -5.988281 8.773438 -6.773438 9.046875 -7.640625 C 9.328125 -8.503906 9.597656 -9.394531 9.859375 -10.3125 C 10.128906 -11.226562 10.390625 -12.132812 10.640625 -13.03125 C 10.890625 -13.925781 11.109375 -14.757812 11.296875 -15.53125 Z M 15.84375 -15.53125 "/></g></g></g><g fill="#1e1e1e" fill-opacity="1"><g transform="translate(247.18688, 197.514624)"><g><path d="M 8 -3.0625 C 8.425781 -3.0625 8.835938 -3.070312 9.234375 -3.09375 C 9.628906 -3.113281 9.945312 -3.144531 10.1875 -3.1875 L 10.1875 -6.515625 C 10.007812 -6.554688 9.742188 -6.597656 9.390625 -6.640625 C 9.035156 -6.679688 8.707031 -6.703125 8.40625 -6.703125 C 8 -6.703125 7.613281 -6.675781 7.25 -6.625 C 6.882812 -6.570312 6.5625 -6.476562 6.28125 -6.34375 C 6.007812 -6.207031 5.796875 -6.019531 5.640625 -5.78125 C 5.484375 -5.550781 5.40625 -5.257812 5.40625 -4.90625 C 5.40625 -4.207031 5.632812 -3.722656 6.09375 -3.453125 C 6.550781 -3.191406 7.1875 -3.0625 8 -3.0625 Z M 7.640625 -15.9375 C 8.941406 -15.9375 10.023438 -15.785156 10.890625 -15.484375 C 11.753906 -15.191406 12.445312 -14.769531 12.96875 -14.21875 C 13.488281 -13.675781 13.859375 -13.007812 14.078125 -12.21875 C 14.296875 -11.425781 14.40625 -10.550781 14.40625 -9.59375 L 14.40625 -0.4375 C 13.769531 -0.300781 12.890625 -0.140625 11.765625 0.046875 C 10.648438 0.234375 9.296875 0.328125 7.703125 0.328125 C 6.703125 0.328125 5.789062 0.238281 4.96875 0.0625 C 4.15625 -0.113281 3.453125 -0.40625 2.859375 -0.8125 C 2.273438 -1.21875 1.820312 -1.742188 1.5 -2.390625 C 1.1875 -3.035156 1.03125 -3.832031 1.03125 -4.78125 C 1.03125 -5.6875 1.210938 -6.453125 1.578125 -7.078125 C 1.941406 -7.710938 2.425781 -8.21875 3.03125 -8.59375 C 3.644531 -8.96875 4.34375 -9.238281 5.125 -9.40625 C 5.914062 -9.570312 6.734375 -9.65625 7.578125 -9.65625 C 8.148438 -9.65625 8.65625 -9.628906 9.09375 -9.578125 C 9.539062 -9.523438 9.90625 -9.460938 10.1875 -9.390625 L 10.1875 -9.796875 C 10.1875 -10.546875 9.957031 -11.144531 9.5 -11.59375 C 9.050781 -12.050781 8.265625 -12.28125 7.140625 -12.28125 C 6.390625 -12.28125 5.648438 -12.222656 4.921875 -12.109375 C 4.203125 -12.003906 3.578125 -11.851562 3.046875 -11.65625 L 2.484375 -15.203125 C 2.734375 -15.273438 3.050781 -15.351562 3.4375 -15.4375 C 3.820312 -15.53125 4.238281 -15.613281 4.6875 -15.6875 C 5.144531 -15.757812 5.625 -15.816406 6.125 -15.859375 C 6.625 -15.910156 7.128906 -15.9375 7.640625 -15.9375 Z M 7.640625 -15.9375 "/></g></g></g><g fill="#1e1e1e" fill-opacity="1"><g transform="translate(263.509763, 197.514624)"><g><path d="M 9.171875 0.265625 C 8.054688 0.265625 6.941406 0.226562 5.828125 0.15625 C 4.710938 0.09375 3.554688 -0.0664062 2.359375 -0.328125 L 2.359375 -20.15625 C 3.304688 -20.332031 4.335938 -20.460938 5.453125 -20.546875 C 6.578125 -20.640625 7.625 -20.6875 8.59375 -20.6875 C 9.882812 -20.6875 11.078125 -20.59375 12.171875 -20.40625 C 13.265625 -20.21875 14.203125 -19.894531 14.984375 -19.4375 C 15.773438 -18.988281 16.390625 -18.394531 16.828125 -17.65625 C 17.273438 -16.925781 17.5 -16.019531 17.5 -14.9375 C 17.5 -13.300781 16.710938 -12.007812 15.140625 -11.0625 C 16.441406 -10.570312 17.328125 -9.90625 17.796875 -9.0625 C 18.265625 -8.21875 18.5 -7.265625 18.5 -6.203125 C 18.5 -4.054688 17.71875 -2.441406 16.15625 -1.359375 C 14.59375 -0.273438 12.265625 0.265625 9.171875 0.265625 Z M 6.84375 -8.90625 L 6.84375 -3.625 C 7.175781 -3.59375 7.539062 -3.566406 7.9375 -3.546875 C 8.332031 -3.523438 8.765625 -3.515625 9.234375 -3.515625 C 10.609375 -3.515625 11.71875 -3.707031 12.5625 -4.09375 C 13.414062 -4.488281 13.84375 -5.21875 13.84375 -6.28125 C 13.84375 -7.226562 13.488281 -7.898438 12.78125 -8.296875 C 12.070312 -8.703125 11.054688 -8.90625 9.734375 -8.90625 Z M 6.84375 -12.421875 L 9.09375 -12.421875 C 10.507812 -12.421875 11.519531 -12.601562 12.125 -12.96875 C 12.738281 -13.332031 13.046875 -13.921875 13.046875 -14.734375 C 13.046875 -15.554688 12.726562 -16.132812 12.09375 -16.46875 C 11.46875 -16.800781 10.546875 -16.96875 9.328125 -16.96875 C 8.929688 -16.96875 8.503906 -16.960938 8.046875 -16.953125 C 7.597656 -16.941406 7.195312 -16.921875 6.84375 -16.890625 Z M 6.84375 -12.421875 "/></g></g></g><g fill="#1e1e1e" fill-opacity="1"><g transform="translate(283.345167, 197.514624)"><g><path d="M 8 -3.0625 C 8.425781 -3.0625 8.835938 -3.070312 9.234375 -3.09375 C 9.628906 -3.113281 9.945312 -3.144531 10.1875 -3.1875 L 10.1875 -6.515625 C 10.007812 -6.554688 9.742188 -6.597656 9.390625 -6.640625 C 9.035156 -6.679688 8.707031 -6.703125 8.40625 -6.703125 C 8 -6.703125 7.613281 -6.675781 7.25 -6.625 C 6.882812 -6.570312 6.5625 -6.476562 6.28125 -6.34375 C 6.007812 -6.207031 5.796875 -6.019531 5.640625 -5.78125 C 5.484375 -5.550781 5.40625 -5.257812 5.40625 -4.90625 C 5.40625 -4.207031 5.632812 -3.722656 6.09375 -3.453125 C 6.550781 -3.191406 7.1875 -3.0625 8 -3.0625 Z M 7.640625 -15.9375 C 8.941406 -15.9375 10.023438 -15.785156 10.890625 -15.484375 C 11.753906 -15.191406 12.445312 -14.769531 12.96875 -14.21875 C 13.488281 -13.675781 13.859375 -13.007812 14.078125 -12.21875 C 14.296875 -11.425781 14.40625 -10.550781 14.40625 -9.59375 L 14.40625 -0.4375 C 13.769531 -0.300781 12.890625 -0.140625 11.765625 0.046875 C 10.648438 0.234375 9.296875 0.328125 7.703125 0.328125 C 6.703125 0.328125 5.789062 0.238281 4.96875 0.0625 C 4.15625 -0.113281 3.453125 -0.40625 2.859375 -0.8125 C 2.273438 -1.21875 1.820312 -1.742188 1.5 -2.390625 C 1.1875 -3.035156 1.03125 -3.832031 1.03125 -4.78125 C 1.03125 -5.6875 1.210938 -6.453125 1.578125 -7.078125 C 1.941406 -7.710938 2.425781 -8.21875 3.03125 -8.59375 C 3.644531 -8.96875 4.34375 -9.238281 5.125 -9.40625 C 5.914062 -9.570312 6.734375 -9.65625 7.578125 -9.65625 C 8.148438 -9.65625 8.65625 -9.628906 9.09375 -9.578125 C 9.539062 -9.523438 9.90625 -9.460938 10.1875 -9.390625 L 10.1875 -9.796875 C 10.1875 -10.546875 9.957031 -11.144531 9.5 -11.59375 C 9.050781 -12.050781 8.265625 -12.28125 7.140625 -12.28125 C 6.390625 -12.28125 5.648438 -12.222656 4.921875 -12.109375 C 4.203125 -12.003906 3.578125 -11.851562 3.046875 -11.65625 L 2.484375 -15.203125 C 2.734375 -15.273438 3.050781 -15.351562 3.4375 -15.4375 C 3.820312 -15.53125 4.238281 -15.613281 4.6875 -15.6875 C 5.144531 -15.757812 5.625 -15.816406 6.125 -15.859375 C 6.625 -15.910156 7.128906 -15.9375 7.640625 -15.9375 Z M 7.640625 -15.9375 "/></g></g></g><g fill="#1e1e1e" fill-opacity="1"><g transform="translate(299.66805, 197.514624)"><g><path d="M 8.265625 0.296875 C 6.984375 0.273438 5.941406 0.140625 5.140625 -0.109375 C 4.347656 -0.367188 3.71875 -0.726562 3.25 -1.1875 C 2.789062 -1.65625 2.476562 -2.21875 2.3125 -2.875 C 2.144531 -3.53125 2.0625 -4.273438 2.0625 -5.109375 L 2.0625 -22.203125 L 6.46875 -22.90625 L 6.46875 -5.984375 C 6.46875 -5.597656 6.492188 -5.242188 6.546875 -4.921875 C 6.609375 -4.609375 6.722656 -4.34375 6.890625 -4.125 C 7.054688 -3.914062 7.296875 -3.738281 7.609375 -3.59375 C 7.929688 -3.457031 8.359375 -3.367188 8.890625 -3.328125 Z M 8.265625 0.296875 "/></g></g></g><g fill="#1e1e1e" fill-opacity="1"><g transform="translate(308.99541, 197.514624)"><g><path d="M 6.46875 0 L 2.0625 0 L 2.0625 -15.53125 L 6.46875 -15.53125 Z M 6.875 -20.015625 C 6.875 -19.203125 6.613281 -18.566406 6.09375 -18.109375 C 5.570312 -17.648438 4.957031 -17.421875 4.25 -17.421875 C 3.539062 -17.421875 2.925781 -17.648438 2.40625 -18.109375 C 1.882812 -18.566406 1.625 -19.203125 1.625 -20.015625 C 1.625 -20.816406 1.882812 -21.445312 2.40625 -21.90625 C 2.925781 -22.375 3.539062 -22.609375 4.25 -22.609375 C 4.957031 -22.609375 5.570312 -22.375 6.09375 -21.90625 C 6.613281 -21.445312 6.875 -20.816406 6.875 -20.015625 Z M 6.875 -20.015625 "/></g></g></g><g fill="#1e1e1e" fill-opacity="1"><g transform="translate(317.525818, 197.514624)"><g><path d="M 6.375 -2.328125 C 6.375 -1.441406 6.09375 -0.765625 5.53125 -0.296875 C 4.96875 0.160156 4.332031 0.390625 3.625 0.390625 C 2.914062 0.390625 2.28125 0.160156 1.71875 -0.296875 C 1.164062 -0.765625 0.890625 -1.441406 0.890625 -2.328125 C 0.890625 -3.210938 1.164062 -3.882812 1.71875 -4.34375 C 2.28125 -4.8125 2.914062 -5.046875 3.625 -5.046875 C 4.332031 -5.046875 4.96875 -4.8125 5.53125 -4.34375 C 6.09375 -3.882812 6.375 -3.210938 6.375 -2.328125 Z M 6.375 -2.328125 "/></g></g></g><g fill="#1e1e1e" fill-opacity="1"><g transform="translate(324.786992, 197.514624)"><g><path d="M 6.46875 0 L 2.0625 0 L 2.0625 -15.53125 L 6.46875 -15.53125 Z M 6.875 -20.015625 C 6.875 -19.203125 6.613281 -18.566406 6.09375 -18.109375 C 5.570312 -17.648438 4.957031 -17.421875 4.25 -17.421875 C 3.539062 -17.421875 2.925781 -17.648438 2.40625 -18.109375 C 1.882812 -18.566406 1.625 -19.203125 1.625 -20.015625 C 1.625 -20.816406 1.882812 -21.445312 2.40625 -21.90625 C 2.925781 -22.375 3.539062 -22.609375 4.25 -22.609375 C 4.957031 -22.609375 5.570312 -22.375 6.09375 -21.90625 C 6.613281 -21.445312 6.875 -20.816406 6.875 -20.015625 Z M 6.875 -20.015625 "/></g></g></g><g fill="#1e1e1e" fill-opacity="1"><g transform="translate(333.3174, 197.514624)"><g><path d="M 5.8125 -7.875 C 5.8125 -6.519531 6.113281 -5.425781 6.71875 -4.59375 C 7.332031 -3.769531 8.238281 -3.359375 9.4375 -3.359375 C 9.832031 -3.359375 10.195312 -3.375 10.53125 -3.40625 C 10.863281 -3.4375 11.140625 -3.472656 11.359375 -3.515625 L 11.359375 -11.515625 C 11.085938 -11.691406 10.726562 -11.835938 10.28125 -11.953125 C 9.84375 -12.066406 9.394531 -12.125 8.9375 -12.125 C 6.851562 -12.125 5.8125 -10.707031 5.8125 -7.875 Z M 15.765625 -0.5 C 15.367188 -0.382812 14.914062 -0.269531 14.40625 -0.15625 C 13.894531 -0.0507812 13.359375 0.0351562 12.796875 0.109375 C 12.234375 0.191406 11.660156 0.257812 11.078125 0.3125 C 10.503906 0.363281 9.953125 0.390625 9.421875 0.390625 C 8.140625 0.390625 6.992188 0.203125 5.984375 -0.171875 C 4.984375 -0.546875 4.140625 -1.082031 3.453125 -1.78125 C 2.765625 -2.476562 2.238281 -3.320312 1.875 -4.3125 C 1.507812 -5.3125 1.328125 -6.429688 1.328125 -7.671875 C 1.328125 -8.929688 1.484375 -10.066406 1.796875 -11.078125 C 2.109375 -12.097656 2.5625 -12.960938 3.15625 -13.671875 C 3.75 -14.378906 4.472656 -14.914062 5.328125 -15.28125 C 6.179688 -15.65625 7.160156 -15.84375 8.265625 -15.84375 C 8.867188 -15.84375 9.410156 -15.785156 9.890625 -15.671875 C 10.378906 -15.554688 10.867188 -15.390625 11.359375 -15.171875 L 11.359375 -22.203125 L 15.765625 -22.90625 Z M 15.765625 -0.5 "/></g></g></g></svg>